<svg xmlns="http://www.w3.org/2000/svg" viewBox="109.7 655.5 882.9 307.3" enable-background="new 109.7 655.5 882.9 307.3"><path d="M185.3 786.6c20.3 0 37.4-8.4 48.8-20.8l4.7 6.3c-12.7 14.7-31.3 22.7-53.2 22.7-39.9 0-70.1-30.2-70.1-69.8-.2-39.7 30-69.5 69.8-69.5 21.9 0 40.4 8.4 53.2 22.7l-4.7 6.3c-11.4-12.7-28.3-20.8-48.5-20.8-35.2 0-60.9 26.3-60.9 61.5-.2 34.9 25.7 61.4 60.9 61.4zm186.3-131.1c40.2 0 70.1 30 70.1 70.1 0 39.7-30 69.5-70.1 69.5-39.7 0-69.5-30-69.5-69.5 0-40.1 29.8-70.1 69.5-70.1zm0 131.1c35.4 0 61.3-26.1 61.3-61.3 0-35.4-25.7-61.5-61.3-61.5-35.2 0-60.9 26.1-60.9 61.5 0 35.3 26 61.3 60.9 61.3zm146 6.6v-135.7h8.9v127.8h80.7v8l-89.6-.1zm208.1-137.7c40.2 0 70.1 30 70.1 70.1 0 39.7-30 69.5-70.1 69.5-39.7 0-69.5-30-69.5-69.5-.3-40.1 29.6-70.1 69.5-70.1zm0 131.1c35.4 0 61.3-26.1 61.3-61.3 0-35.4-25.7-61.5-61.3-61.5-35.2 0-60.9 26.1-60.9 61.5-.4 35.3 25.7 61.3 60.9 61.3zm146.1-129.1h58.1c24.6 0 45.7 13.3 45.7 42.4 0 26.6-20.3 41.6-44.3 41.6h-1.3l55.9 50.5v1.1h-11.4l-56.8-51.6h-37.3v51.6h-8.9v-135.7l.3.1zm8.5 8.1v68.4h49.9c19.7 0 36-11.9 36-33.8 0-23.8-16.9-34.6-36-34.6h-49.9zm-725.9 259.4h-39.1v-51l33.8-30.7h56.3v89.2l-29.6 27.1-30.2.2v-26.8l30-.2v-26.3l-21.2 18.5zm20.7-54.3h-29.6v27.2h30v-27.2h-.4zm127.8 27.3v27.4h-69.3l-20.8-18.8v-32.2l33.8-30.5h56.3v35.4l-20.5 19.2h20.5v-.5zm-30.2-27.3h-29.7v27.2h30v-27.2h-.3zm39.3-27.2h30.2v19.2l21.1-19.2h39.1v81.8h-30.2v-54.6h-30v54.6h-30.2v-81.8zm187.6 54.5v27.4h-69.3l-20.8-18.8v-32.2l33.8-30.5h56.3v35.4l-20.6 19.2h20.5v-.5h.1zm-30.2-27.3h-30v27.2h30v-27.2zm138.6 73l-21.4 19.2-47.9-53.8v16.4h-30v-51l33.8-30.7h56.3v49.2l-21.4 18.8 30.6 31.9zm-39.4-73h-30v27.2h30v-27.2zm78.5 54.3h-39.1v-51l33.8-30.7h56.2v81.7h-30.2v-18.8l-20.7 18.8zm20.7-54.3h-30v27.2h30v-27.2zm90.9-54.4v27.2h26.3v27.4h-26.3v27.1h26.3v27.4h-56.3v-54.6h-30.2l30.2-27.4v-27.2h30zm35.4 57.9l33.9-30.5h56.3v51.2l-33.3 30.5h-56.5v-51.2h-.4zm59.9-3.3h-30v27.1h30v-27.1zm138.6 72.8l-21.4 19.2-47.9-53.8v16.4h-30v-51l33.8-30.7h56.3v49.2l-21.4 18.9 30.6 31.8zm-39.4-73h-30v27.2h30v-27.2z" opacity=".25"/><path fill="#fff" d="M179.9 786.6c20.3 0 37.4-8.4 48.8-20.8l4.7 6.3c-12.7 14.7-31.3 22.7-53.2 22.7-39.9 0-70.1-30.2-70.1-69.8-.2-39.7 30-69.5 69.8-69.5 21.9 0 40.4 8.4 53.2 22.7l-4.7 6.3c-11.4-12.7-28.3-20.8-48.5-20.8-35.2 0-60.9 26.3-60.9 61.5-.4 35 25.7 61.4 60.9 61.4zm186.1-131.1c40.2 0 70.1 30 70.1 70.1 0 39.7-30 69.5-70.1 69.5-39.7 0-69.5-30-69.5-69.5 0-40.1 29.9-70.1 69.5-70.1zm0 131.1c35.4 0 61.3-26.1 61.3-61.3 0-35.4-25.7-61.5-61.3-61.5-35.2 0-60.9 26.1-60.9 61.5 0 35.3 26 61.3 60.9 61.3zm146.1 6.7v-135.8h8.9v127.8h80.7v8h-89.6zm208-137.8c40.2 0 70.1 30 70.1 70.1 0 39.7-30 69.5-70.1 69.5-39.7 0-69.5-30-69.5-69.5-.3-40.1 29.7-70.1 69.5-70.1zm0 131.1c35.4 0 61.3-26.1 61.3-61.3 0-35.4-25.7-61.5-61.3-61.5-35.2 0-60.9 26.1-60.9 61.5-.2 35.3 25.7 61.3 60.9 61.3zm146.1-129.1h58.1c24.6 0 45.7 13.3 45.7 42.4 0 26.6-20.3 41.6-44.3 41.6h-1.3l55.9 50.5v1.1h-11.4l-56.8-51.6h-37.3v51.6h-8.9v-135.7l.3.1zm8.6 8.1v68.4h49.9c19.7 0 36-11.9 36-33.8 0-23.8-16.9-34.6-36-34.6h-49.9zm-726 259.6h-39.1v-51l33.8-30.7h56.3v89.2l-29.6 26.8-30.2.2v-26.8l30-.2v-26.3l-21.2 18.8zm20.8-54.3h-29.6v27.1h30v-27.2h-.4v.1zm127.7 27.1v27.4h-69.3l-20.8-18.8v-32.2l33.8-30.5h56.3v35.4l-20.5 19.2h20.5v-.5zm-30.2-27.3h-29.6v27.2h30v-27.2h-.4zm39.3-27.2h30.3v19.2l21.1-19.2h39.1v81.8h-30.2v-54.6h-30v54.6h-30.2l-.1-81.8zm187.6 54.5v27.4h-69.3l-20.8-18.8v-32.2l33.8-30.5h56.3v35.4l-20.5 19.2h20.5v-.5zm-30.2-27.3h-30v27.2h30v-27.2zm138.6 73l-21.3 19.2-47.9-53.8v16.4h-30v-51l33.8-30.7h56.3v49.2l-21.4 18.8 30.5 31.9zm-39.3-73h-30v27.2h30v-27.2zm78.4 54.5h-39.1v-51l33.8-30.7h56.3v81.8h-30.2v-18.8l-20.8 18.7zm20.7-54.3h-30v27.1h30v-27.1zm90.9-54.6v27.2h26.3v27.4h-26.3v27.1h26.3v27.4h-56.1v-54.6h-30.2l30.2-27.4v-27.2h29.8v.1zm35.6 57.9l33.8-30.5h56.3v51.2l-33.3 30.5h-56.5v-51.2h-.3zm59.8-3.3h-30v27.1h30v-27.1zm138.5 72.8l-21.4 19.2-47.9-53.8v16.4h-30v-51l33.8-30.7h56.3v49.2l-21.4 18.8 30.6 31.9zm-39.3-73h-30v27.2h30v-27.2z"/></svg>