<svg xmlns="http://www.w3.org/2000/svg" viewBox="0 0 1000 230.9" enable-background="new 0 0 1000 230.9"><path d="M133.8 186.9c23.7 0 43.4-9.5 56.6-24.1l5.3 7.4c-14.8 16.9-36.4 26.4-61.9 26.4-46.4 0-81.4-35-81.4-81.2s35-81.2 81.4-81.2c25.5 0 47.1 9.5 61.9 26.4l-5.3 7.4c-13.2-14.5-32.9-24-56.6-24-40.8 0-71 30.6-71 71.4.1 40.9 30.2 71.5 71 71.5zm170.2-152.6c46.6 0 81.4 34.8 81.4 81.4 0 46.2-34.8 80.9-81.4 80.9-46.2 0-80.9-34.8-80.9-80.9 0-46.6 34.8-81.4 80.9-81.4zm0 152.6c41.3 0 71.2-30.4 71.2-71.2 0-41.3-29.9-71.4-71.2-71.4-40.8 0-71 30.2-71 71.4.1 40.8 30.2 71.2 71 71.2zm123.4-150.3h65.2c29.2 0 54.3 17.2 54.3 54.5 0 33.6-25 53.6-54.3 53.6h-55v49.6h-10.2v-157.7zm10.2 9.3v89.5h53.8c24.6 0 45-16.2 45-44.3 0-30.8-20.4-45.2-45-45.2h-53.8zm147.5-9.3h10.2v157.7h-10.2v-157.7zm63.3 157.7v-157.7h118.3v9.5h-108.3v61h91.4v9.3h-91.4v68.4h108.3v9.5h-118.3zm159.8-157.7h58c46.6.2 81.4 27.8 81.4 79.1 0 50.8-34.8 78.6-81.4 78.6h-58v-157.7zm10.2 9.3v139.1h47.5c41.3 0 71.2-24.4 71.2-69.3 0-45.5-29.9-69.6-71.2-69.8h-47.5z"/></svg>