<svg xmlns="http://www.w3.org/2000/svg" viewBox="0 0 100 100" enable-background="new 0 0 100 100"><path opacity=".25" d="M66 54l26.3-26.3c.6-.6.6-1.7 0-2.3l-9.7-9.7c-.3-.3-.7-.5-1.1-.5s-.8.2-1.1.5l-26.4 26.3-26.3-26.4c-.7-.6-1.7-.6-2.3 0l-9.7 9.7c-.7.7-.7 1.7-.1 2.4l26.4 26.3-26.4 26.3c-.6.7-.6 1.7 0 2.3l9.7 9.7c.3.3.7.5 1.1.5s.8-.2 1.1-.5l26.5-26.3 26.3 26.3c.3.3.7.5 1.1.5s.8-.2 1.1-.5l9.7-9.7c.6-.6.6-1.7 0-2.3l-26.2-26.3z"/><path fill="#fff" d="M62 50l26.3-26.3c.6-.6.6-1.7 0-2.3l-9.7-9.7c-.3-.3-.7-.5-1.1-.5s-.8.2-1.1.5l-26.4 26.3-26.3-26.4c-.7-.6-1.7-.6-2.3 0l-9.7 9.7c-.7.7-.7 1.7-.1 2.4l26.4 26.3-26.4 26.3c-.6.7-.6 1.7 0 2.3l9.7 9.7c.3.3.7.5 1.1.5s.8-.2 1.1-.5l26.5-26.3 26.3 26.3c.3.3.7.5 1.1.5s.8-.2 1.1-.5l9.7-9.7c.6-.6.6-1.7 0-2.3l-26.2-26.3z"/></svg>