<svg xmlns="http://www.w3.org/2000/svg" viewBox="0 0 1000 1000" enable-background="new 0 0 1000 1000"><path d="M676.1 608.7c11.7-16.4 20-35.9 24.4-57.2-16.9-3.2-33.8-6.7-50.6-10.6l-8.7-2.1c-9.9-2.4-19.5-4.7-29-6.5-22.5 40-50 77.1-81.8 110.1 10.6 7.7 23.3 13.1 37.1 15.4 39.2 6.4 82.9-13.3 108.6-49.1zm-103.4-80.3c-26.5.7-49.4 11-61.2 27.4-12.5 17.5-13.2 43.8-1.6 64.1.6 1 1.2 2.1 1.9 3.1 27.4-28.5 51.4-60.3 71.6-94.4-2.4-.1-4.8-.2-7.2-.2h-3.5zm-352-21.9c62.4-31.5 123.1-66.9 181.2-105.9 31.7-27.6 65.8-52.3 102.1-73.9l15.1 22.1c-32.7 25.5-66.3 49.9-100.8 73.1-20 17.6-39 36.3-56.9 56.3-22 24.5-48.4 57.5-58.4 96.3-9.7 37.8-.5 76.2 23.4 97.6 22.2 20 58.8 25.9 93.2 15.2 23.9-7.5 47.4-22 72.8-45.2-2.1-2.8-4-5.7-5.7-8.8-16.9-29.5-15.7-66.9 3-93 16.9-23.6 46.9-37.7 82.3-38.6 8.6-.2 17.2.3 25.6 1.3 24.5-47.4 41.8-98.6 50.6-151.2l5.6-33.6 18.8 28.4c31 46.8 49.2 90.7 55.8 134 2.5 16.6 3.1 33.1 2 49.1 82.6 13.4 166.3 17.3 249.2 11.7.4-7.5.5-15 .5-22.5 0-255.2-206.8-462-462-462s-462.1 206.7-462.1 461.9c0 12.8.5 25.6 1.6 38.1 57.4-1.4 115-26.1 163.1-50.4zm481.2-22.1c-4.6-30.5-15.9-61.7-34.1-94.4-9.6 40.6-23.9 80.1-42.5 117.5 7.5 1.6 14.9 3.4 22.2 5.1 2.9.7 5.7 1.4 8.6 2 15.9 3.7 31.9 7.1 47.9 10.1.6-13 0-26.6-2.1-40.3zm244 85.4c-73.7 2.6-147-2-219.1-13.6-5.1 25.2-14.9 48.5-29 68.2-31.5 44-85.7 68-134.7 59.9-19.5-3.2-37.5-11.3-52.1-22.9-28.6 26.3-55.5 42.8-83.5 51.5-14.2 4.4-28.6 6.6-42.6 6.6-29.2 0-56.6-9.5-76.6-27.4-31.3-28.1-43.6-76.8-31.5-124.2 8.6-33.7 27.4-62.8 46.5-86.6-29.7 17.3-60 33.7-90.7 49.2-50.1 25.4-110.6 51.5-172 53.6 31.8 224.2 224.4 396.7 457.4 396.7 238.4 0 434.6-180.6 459.4-412.4-10.3.5-20.9 1-31.5 1.4z" opacity=".25"/><path d="M658.1 589.7c11.7-16.4 20-35.9 24.4-57.2-16.9-3.2-33.8-6.7-50.6-10.6l-8.7-2.1c-9.9-2.4-19.5-4.7-29-6.5-22.5 40-50 77.1-81.8 110.1 10.6 7.7 23.3 13.1 37.1 15.4 39.2 6.4 82.9-13.3 108.6-49.1zm-103.4-80.3c-26.5.7-49.4 11-61.2 27.4-12.5 17.5-13.2 43.8-1.6 64.1.6 1 1.2 2.1 1.9 3.1 27.4-28.5 51.4-60.3 71.6-94.4-2.4-.1-4.8-.2-7.2-.2h-3.5zm-352-21.9c62.4-31.5 123.1-66.9 181.2-105.9 31.7-27.6 65.8-52.3 102.1-73.9l15.1 22.1c-32.7 25.5-66.3 49.9-100.8 73.1-20 17.6-39 36.3-56.9 56.3-22 24.5-48.4 57.5-58.4 96.3-9.7 37.8-.5 76.2 23.4 97.6 22.2 20 58.8 25.9 93.2 15.2 23.9-7.5 47.4-22 72.8-45.2-2.1-2.8-4-5.7-5.7-8.8-16.9-29.5-15.7-66.9 3-93 16.9-23.6 46.9-37.7 82.3-38.6 8.6-.2 17.2.3 25.6 1.3 24.5-47.4 41.8-98.6 50.6-151.2l5.6-33.6 18.8 28.4c31 46.8 49.2 90.7 55.8 134 2.5 16.6 3.1 33.1 2 49.1 82.6 13.4 166.3 17.3 249.2 11.7.4-7.5.5-15 .5-22.5 0-255.2-206.8-462-462-462s-462.1 206.7-462.1 461.9c0 12.8.5 25.6 1.6 38.1 57.4-1.4 115-26.1 163.1-50.4zm481.2-22.1c-4.6-30.5-15.9-61.7-34.1-94.4-9.6 40.6-23.9 80.1-42.5 117.5 7.5 1.6 14.9 3.4 22.2 5.1 2.9.7 5.7 1.4 8.6 2 15.9 3.7 31.9 7.1 47.9 10.1.6-13 0-26.6-2.1-40.3zm244 85.4c-73.7 2.6-147-2-219.1-13.6-5.1 25.2-14.9 48.5-29 68.2-31.5 44-85.7 68-134.7 59.9-19.5-3.2-37.5-11.3-52.1-22.9-28.6 26.3-55.5 42.8-83.5 51.5-14.2 4.4-28.6 6.6-42.6 6.6-29.2 0-56.6-9.5-76.6-27.4-31.3-28.1-43.6-76.8-31.5-124.2 8.6-33.7 27.4-62.8 46.5-86.6-29.7 17.3-60 33.7-90.7 49.2-50.1 25.4-110.6 51.5-172 53.6 31.8 224.2 224.4 396.7 457.4 396.7 238.4 0 434.6-180.6 459.4-412.4-10.3.5-20.9 1-31.5 1.4z" fill="#fff"/></svg>