<svg xmlns="http://www.w3.org/2000/svg" viewBox="0 338 1000 324" enable-background="new 0 338 1000 324"><path d="M215.5 568.7h-77.6l-45.7-41.9v-69.9h77l46.3 41.9v69.9zm-82-37.4h40.7v-37.2h-40.7v37.2zm134.5 74.6h-41.3v-123l28.6-26h94.4v111.8h-52.8l-28.6-26.3v63.4h-.3zm41-74.6v-37.2h-41v37.2h41zm49-74.4h123.3v36.9h-41.3v74.9h-41v-74.9h-41v-36.9zm172.3-46.9v37.5h-41.3v-37.5h41.3zm-41.3 74.4l41.3-37.5v121.8h-41.3v-84.3zm175.8 84.3h-77.6l-45.7-41.9v-69.9h77l46.3 41.9v69.9zm-82-37.4h40.7v-37.2h-40.7v37.2zm93.5-74.4h41.3v26.3l28.6-26.3h53.4v111.8h-41.3v-74.6h-40.7v74.6h-41.3v-111.8zm190.5-46.9l30.4 27.7-41.9 38.9 66.4 66.4-67.6 62.5-30.4-27.7 41.9-38.9-66.4-66.4 67.6-62.5z" opacity=".25"/><path d="M205.6 557.8h-77.6l-45.7-41.9v-69.9h77l46.3 41.9v69.9zm-82-37.4h40.7v-37.2h-40.7v37.2zm134.5 74.6h-41.3v-123l28.6-26h94.4v111.8h-52.8l-28.6-26.3v63.5h-.3zm41-74.6v-37.2h-41v37.2h41zm49-74.4h123.3v36.9h-41.3v74.9h-41v-74.9h-41v-36.9zm172.3-46.9v37.5h-41.3v-37.5h41.3zm-41.3 74.4l41.3-37.5v121.8h-41.3v-84.3zm175.8 84.3h-77.6l-45.7-41.9v-69.9h77l46.3 41.9v69.9zm-82-37.4h40.7v-37.2h-40.7v37.2zm93.5-74.4h41.3v26.3l28.6-26.3h53.4v111.8h-41.3v-74.6h-40.7v74.6h-41.3v-111.8zm190.5-46.9l30.4 27.7-41.9 38.9 66.4 66.4-67.6 62.5-30.3-27.6 41.9-38.9-66.4-66.4 67.5-62.6z" fill="#fff"/></svg>