<svg xmlns="http://www.w3.org/2000/svg" viewBox="0 0 1000 1000" enable-background="new 0 0 1000 1000"><path d="M767.8 587.8c0 137.8-112.8 250.6-250.6 250.6s-250.7-112.8-250.7-250.6 112.8-250.6 250.6-250.6h75.2l-37.6 37.6 87.7 87.7 188-188-187.9-188-87.7 87.7 37.6 37.6h-75.3c-206.8 0-376 169.2-376 376s169.2 375.9 376 375.9 376-169.2 376-376l-125.3.1z" opacity=".25"/><path fill="#fff" d="M750.7 562.7c0 137.8-112.8 250.6-250.6 250.6s-250.7-112.7-250.7-250.6 112.8-250.6 250.6-250.6h75.2l-37.6 37.6 87.7 87.7 188-188-187.9-188-87.7 87.7 37.6 37.6h-75.3c-206.8 0-376 169.2-376 376s169.2 375.9 376 375.9 376-169.2 376-376l-125.3.1z"/></svg>